# xmcd
#
# Track frame offsets:
#	150
#	12482
#	28995
#	40382
#	60002
#	74420
#	89237
#	99675
#	113142
#	128345
#	144952
#
# Disc length: 2105 seconds
#
# Revision: 3
# Processed by: cddbd v1.5.2PL0 Copyright (c) Steve Scherf et al.
# Submitted via: EasyCDDAExtractor 6.5.0.1
#
DISCID=9508370b
DTITLE=Gene Watson - The Good Ole Days
DYEAR=1996
DGENRE=Country
TTITLE0=The Good Ole Days Are Right Now
TTITLE1=No Goodbyes
TTITLE2=You Pushed Me To The Limit
TTITLE3=Change Her Mind
TTITLE4=The Man That Broke Your Heart
TTITLE5=I Don't Need A Thing At All
TTITLE6=Speak Softly (You're Talking To My Heart)
TTITLE7=Somewhere Beyond Nowhere
TTITLE8=Love In The Hot Afternoon
TTITLE9=Getting Over You Again
TTITLE10=Where I'm Concerned
EXTD=
EXTT0=
EXTT1=
EXTT2=
EXTT3=
EXTT4=
EXTT5=
EXTT6=
EXTT7=
EXTT8=
EXTT9=
EXTT10=
PLAYORDER=
